PathFileType  4	(X/Y/Z) C:\Users\antoi\Documents\MyRepositories\mobilecap\ResultsAnalysis
DataRate	CameraRate	NumFrames	NumMarkers	Units	OrigDataRate	OrigDataStartFrame	OrigNumFrames
100.0	100.0	6	51	mm	100.0	58	231
Frame#	Time	r_knee			r_shank_antsup			r_ankle			r_calc			r_5meta			r_toe			L_knee			L_shank_antsup			L_ankle			L_calc			L_5meta			L_toe			r_sh2			r_sh3			r_sh4			L_sh2			L_sh3			r_thigh1			r_thigh2			r_thigh3			r_thigh4			r_thigh5			L_thigh1			L_thigh2			L_thigh3			L_thigh4			r.ASIS			r.PSIS			L.ASIS			L.PSIS			C7			R_Shoulder			L_Shoulder			R_Sternum			L_Sternum			R_humerus			R_elbow_med			R_elbow_lat			R_forearm			R_wrist_radius			R_wrist_ulna			L_humerus			L_elbow_med			L_elbow_lat			L_forearm			L_wrist_radius			L_wrist_ulna			R_HJC			L_HJC			R_HJC_reg			L_HJC_reg			
		X1	Y1	Z1	X2	Y2	Z2	X3	Y3	Z3	X4	Y4	Z4	X5	Y5	Z5	X6	Y6	Z6	X7	Y7	Z7	X8	Y8	Z8	X9	Y9	Z9	X10	Y10	Z10	X11	Y11	Z11	X12	Y12	Z12	X13	Y13	Z13	X14	Y14	Z14	X15	Y15	Z15	X16	Y16	Z16	X17	Y17	Z17	X18	Y18	Z18	X19	Y19	Z19	X20	Y20	Z20	X21	Y21	Z21	X22	Y22	Z22	X23	Y23	Z23	X24	Y24	Z24	X25	Y25	Z25	X26	Y26	Z26	X27	Y27	Z27	X28	Y28	Z28	X29	Y29	Z29	X30	Y30	Z30	X31	Y31	Z31	X32	Y32	Z32	X33	Y33	Z33	X34	Y34	Z34	X35	Y35	Z35	X36	Y36	Z36	X37	Y37	Z37	X38	Y38	Z38	X39	Y39	Z39	X40	Y40	Z40	X41	Y41	Z41	X42	Y42	Z42	X43	Y43	Z43	X44	Y44	Z44	X45	Y45	Z45	X46	Y46	Z46	X47	Y47	Z47	X48	Y48	Z48	X49	Y49	Z49	X50	Y50	Z50	X51	Y51	Z51	

58	0.57000000	-992.90201	868.27313	-416.50190	-992.11607	764.87667	-426.94082	-1202.41868	489.91051	-462.01407	-1297.93185	477.70430	-513.27521	-1134.69760	363.67520	-429.04077	-1070.38975	374.60231	-490.48929	-866.75062	896.28785	-758.29148	-900.46075	818.72623	-778.47500	-1091.78764	546.04738	-719.85192	-1177.62538	573.05111	-662.68282	-1078.45844	402.24543	-739.55855	-1016.51929	381.66028	-676.22180	-1057.38426	673.14252	-407.50142	-1041.56256	807.07824	-387.76470	-1122.41881	722.50275	-388.28290	-973.75220	869.33008	-764.85383	-1030.47036	761.22536	-756.61851	-877.34310	1178.45517	-394.11072	-885.62328	1069.52274	-403.42466	-940.60314	1046.41417	-373.63250	-989.13723	1182.08283	-385.99662	-990.13717	1067.13643	-389.75888	-828.91627	1188.79862	-760.56291	-798.01320	1051.62318	-756.41214	-934.72177	1164.10404	-782.85449	-909.51545	1029.03826	-778.15952	-839.61699	1390.27901	-437.76976	-1018.15456	1437.22448	-494.09139	-850.17184	1411.26615	-684.83251	-1027.36771	1447.80587	-605.18508	-859.36291	1966.69063	-556.49820	-816.48473	1912.59087	-405.16285	-835.41889	1911.34506	-711.79644	-753.33305	1852.65155	-531.80681	-756.45316	1848.87615	-587.50350	-773.75433	1803.30827	-302.04781	-756.41008	1589.28435	-255.71229	-760.83542	1647.87093	-186.83950	-595.16576	1691.34754	-206.51265	-517.33904	1730.85873	-242.22565	-511.74124	1695.48107	-212.83211	-822.74362	1825.40350	-817.04420	-762.10658	1582.09401	-852.06894	-743.20214	1638.94845	-914.97031	-666.02147	1653.70479	-905.67459	-497.56869	1648.95480	-851.61055	-492.87703	1620.34670	-881.28493	-936.82058	1289.63699	-461.96497	-949.74637	1314.26884	-667.04844	-909.53446	1321.61968	-473.57399	-923.01119	1337.09800	-636.07989	
59	0.58000000	-977.55644	877.77653	-416.73452	-978.33819	774.31491	-426.17185	-1189.51374	500.57868	-461.37441	-1284.77918	495.39000	-513.15408	-1130.75855	368.58752	-429.32541	-1065.59913	374.98110	-490.41665	-852.99950	905.09283	-760.01321	-885.70377	827.96611	-780.03367	-1073.16375	551.82017	-722.65804	-1155.40163	584.17748	-663.87828	-1070.00289	405.73303	-740.36037	-1007.47057	381.86707	-679.08182	-1045.03861	683.53464	-406.75737	-1027.91725	817.49021	-387.94806	-1109.84673	733.59432	-389.24308	-959.91237	877.22074	-765.82882	-1014.50300	767.94160	-757.98472	-861.16657	1187.43062	-395.99805	-869.12727	1078.36929	-405.32989	-923.84606	1055.06015	-375.11753	-972.71993	1190.83928	-386.29541	-973.65227	1075.86565	-390.76741	-815.93059	1197.31073	-764.15681	-784.84090	1060.13527	-759.86650	-922.21284	1172.18539	-784.01098	-896.84862	1037.20230	-778.55382	-826.17823	1400.70038	-438.97587	-1004.88703	1445.68357	-495.33369	-836.78269	1421.31685	-686.03290	-1013.88573	1456.01794	-606.70607	-853.32747	1976.52982	-556.44489	-810.75673	1923.18369	-405.63035	-830.67904	1921.77307	-711.87752	-747.04710	1862.77450	-532.22342	-750.41132	1858.99956	-588.23969	-767.09569	1816.33978	-300.66839	-746.42942	1603.34201	-251.87657	-752.88798	1662.45831	-183.23125	-588.35292	1709.85146	-201.74078	-511.63044	1751.56337	-237.03562	-505.18754	1716.29164	-207.67860	-818.71943	1836.67870	-817.79128	-757.33385	1593.28743	-854.96150	-738.96650	1651.54433	-917.67248	-662.25556	1667.25939	-908.47405	-493.68713	1666.95722	-854.87416	-488.30650	1638.70943	-884.62356	-922.15306	1298.99911	-463.11700	-935.15826	1323.27663	-668.23732	-895.49504	1331.33671	-474.86533	-908.62854	1346.41934	-637.41417	
60	0.59000000	-960.02156	886.36754	-417.51167	-962.34919	783.09160	-425.55398	-1175.00330	511.14819	-460.72862	-1269.38969	513.46533	-513.39206	-1126.28387	374.27593	-429.51743	-1060.63933	375.54985	-490.28850	-839.38052	913.15532	-761.39864	-870.97003	836.13763	-781.15497	-1055.45124	557.28989	-725.05903	-1134.24307	592.74191	-664.37832	-1058.69994	410.32045	-742.29280	-995.42509	383.82632	-683.10196	-1030.48835	693.36128	-406.00325	-1011.95687	827.33111	-388.28089	-1095.15485	744.78235	-389.98086	-946.02845	883.89788	-766.66303	-998.49196	773.70549	-759.81846	-845.47226	1196.25844	-397.19681	-852.21068	1086.95870	-406.41151	-906.94875	1063.33406	-376.37762	-957.23585	1198.65134	-387.45972	-956.98169	1083.59727	-391.72961	-803.50941	1205.07256	-766.37981	-771.81553	1068.11642	-762.21126	-909.78592	1179.60434	-784.81668	-884.01376	1044.70653	-778.86455	-813.40144	1410.71138	-439.94942	-992.11180	1453.81392	-496.98691	-823.77740	1430.44633	-687.10165	-1000.85745	1463.65972	-608.68972	-846.82978	1985.62466	-556.55230	-804.87000	1933.02159	-406.13201	-825.39049	1931.40303	-711.84084	-740.51194	1872.15309	-532.59870	-743.93778	1868.35305	-588.89222	-760.68801	1828.47177	-299.43471	-737.40031	1616.36291	-248.10644	-745.79998	1675.88182	-179.85594	-582.25233	1726.76209	-196.77841	-506.48102	1770.38009	-231.49310	-499.32222	1735.15741	-202.30509	-814.47983	1847.00387	-818.22773	-752.38434	1603.89348	-857.61216	-735.03754	1662.91719	-920.22936	-658.78453	1679.68374	-911.31365	-490.10338	1683.23564	-858.41815	-484.11979	1655.07687	-887.93501	-908.28875	1308.03967	-464.08694	-920.96294	1331.49280	-669.32303	-882.07515	1340.64891	-475.79050	-894.81017	1354.98587	-638.44646	
61	0.60000000	-940.18095	894.00074	-418.47406	-944.09783	791.06173	-425.01089	-1159.25914	521.61903	-460.10030	-1252.03935	531.56721	-513.81254	-1121.20820	380.80105	-429.84286	-1054.92522	377.00506	-489.79055	-825.85813	920.37242	-762.40519	-856.41504	842.81629	-782.16478	-1038.60086	562.52716	-726.54185	-1115.76962	597.97758	-664.36659	-1042.69169	416.03599	-745.58432	-978.66894	388.39850	-688.03135	-1013.47853	702.29196	-405.44465	-993.40271	836.38397	-388.79702	-1077.93117	755.17495	-390.73840	-932.05579	889.50135	-767.77025	-983.13497	778.71931	-761.77339	-830.38835	1204.83722	-397.67832	-835.15910	1095.40882	-406.31542	-890.00923	1071.27176	-377.18005	-942.69152	1205.35893	-389.02941	-940.16046	1090.25613	-392.82300	-791.24227	1212.18727	-767.49107	-758.81669	1075.53896	-763.60085	-897.35132	1186.35362	-785.40882	-870.94249	1051.53435	-779.35304	-801.16286	1420.16698	-440.84793	-979.80987	1461.33302	-498.86382	-811.18516	1438.56400	-687.99029	-988.24604	1470.51856	-610.81407	-839.87134	1993.83007	-556.87072	-798.86604	1941.95892	-406.76814	-819.60817	1940.18846	-711.77769	-733.71396	1880.61642	-532.83928	-737.01797	1876.69114	-589.52310	-754.39518	1839.53292	-298.22663	-729.14222	1628.19320	-244.60535	-739.47408	1688.14734	-176.67589	-576.83639	1742.09598	-191.69359	-501.79484	1787.30717	-225.67412	-494.16526	1752.13359	-196.59955	-809.94261	1856.33742	-818.63997	-747.33862	1613.75244	-860.19915	-731.31727	1673.00667	-922.91237	-655.41086	1691.07800	-914.46877	-486.66379	1697.98248	-862.46446	-480.19288	1669.77144	-891.75525	-895.01800	1316.52631	-464.83818	-907.16732	1338.77884	-670.23938	-869.16279	1349.36303	-476.53542	-881.42300	1362.71253	-639.22790	
62	0.61000000	-918.04917	900.50867	-418.93031	-923.61059	797.84716	-424.64078	-1142.90542	532.08767	-459.63376	-1233.21855	549.44012	-514.48548	-1115.36201	388.26441	-430.80661	-1047.48119	380.40591	-488.67243	-812.34714	926.59142	-763.02269	-842.05853	848.05978	-783.29700	-1022.07326	567.14753	-727.33120	-1099.94113	599.72381	-664.32544	-1022.35271	421.77323	-749.62106	-957.50171	394.52334	-693.01311	-994.19084	710.13865	-405.07343	-972.58030	844.03171	-389.75178	-1058.15854	764.01009	-391.55684	-917.96140	894.36952	-769.23931	-968.55055	783.25484	-763.25724	-815.94864	1213.02419	-397.65152	-818.11906	1103.65276	-405.44249	-872.88139	1078.31506	-377.55756	-928.48790	1210.83229	-390.17914	-923.12107	1095.82788	-394.17759	-778.63853	1218.83252	-767.91517	-745.74658	1082.29878	-764.22451	-884.79600	1192.36307	-785.95207	-857.67730	1057.57936	-779.77601	-789.36088	1428.71076	-441.92054	-967.95513	1468.00892	-500.74646	-798.96172	1445.68185	-688.91620	-976.10647	1476.53149	-612.84365	-832.42456	2001.01554	-557.30914	-792.62277	1949.81895	-407.52628	-813.27022	1948.09744	-711.89215	-726.45084	1887.80571	-533.24106	-729.60617	1883.91167	-590.24912	-748.14427	1849.35057	-297.14884	-721.63994	1638.62834	-241.07104	-733.75801	1699.15919	-173.75515	-572.04468	1755.77725	-186.54439	-497.51501	1802.32378	-219.72675	-489.61833	1767.29631	-190.61245	-804.96060	1864.69286	-819.47415	-742.53137	1622.24307	-862.81138	-727.72081	1681.80813	-925.63223	-652.11858	1701.13548	-917.77446	-483.29086	1711.17618	-867.07955	-476.47235	1683.02266	-896.28145	-882.22642	1324.14244	-465.59213	-893.89505	1345.16124	-671.15206	-856.67285	1357.20025	-477.40145	-868.49825	1369.56445	-640.02850	
63	0.62000000	-894.00110	905.64335	-418.86343	-901.26249	803.03991	-424.96500	-1126.06586	542.41535	-459.52590	-1213.11451	566.60642	-515.15440	-1108.03605	396.58362	-432.35040	-1038.36257	385.63992	-487.59163	-798.68683	931.75437	-763.68466	-827.83318	852.39651	-784.41392	-1005.26442	570.54564	-728.01311	-1084.92947	598.75137	-664.56058	-999.44403	426.52274	-753.79403	-933.82579	400.38513	-697.47838	-973.25033	716.69871	-404.92517	-949.59867	850.19281	-390.63867	-1036.20882	771.34915	-392.05541	-903.89902	898.55465	-770.48231	-954.13988	787.16941	-763.99045	-802.02903	1220.58664	-397.44051	-800.98398	1111.29218	-404.69778	-855.36489	1084.05917	-377.57311	-914.29320	1215.13797	-390.90159	-905.78086	1100.23378	-395.19172	-765.80624	1224.71002	-767.75053	-732.57979	1088.21685	-764.14947	-871.97986	1197.64893	-786.58104	-844.26025	1063.00818	-780.35293	-777.93002	1436.02372	-443.10495	-956.51613	1473.65062	-502.52051	-787.04958	1451.81062	-689.93679	-964.37418	1481.65062	-614.71958	-824.51046	2007.17327	-557.87017	-785.95686	1956.48366	-408.32166	-806.31601	1955.04975	-712.29849	-718.63982	1893.42748	-534.14472	-721.71806	1890.04526	-591.00259	-741.95807	1857.78961	-296.32571	-714.90141	1647.60996	-237.14115	-728.59939	1708.77369	-171.02764	-567.79227	1767.75444	-181.38469	-493.62395	1815.45624	-213.67201	-485.55369	1780.60859	-184.50272	-799.45686	1871.99558	-820.61712	-737.88413	1629.46299	-865.38505	-724.18233	1689.36591	-928.25868	-648.96685	1709.66728	-921.03215	-479.98877	1722.66794	-871.97889	-472.91869	1694.67842	-901.12132	-869.88345	1330.62709	-466.47361	-881.12789	1350.64717	-672.15708	-844.60317	1363.87159	-478.45877	-855.98651	1375.46073	-641.00167	
